<?xml version="1.0" encoding="UTF-8"?>
<svg width="60px" height="60px" viewBox="0 0 60 60" version="1.1" xmlns="http://www.w3.org/2000/svg" xmlns:xlink="http://www.w3.org/1999/xlink">
    <title>Icons/IconTeaser/Blog-Lighter</title>
    <defs>
        <circle id="path-1" cx="30" cy="30" r="30"></circle>
    </defs>
    <g id="Icons/IconTeaser/Blog-Lighter" stroke="none" stroke-width="1" fill="none" fill-rule="evenodd">
        <circle id="Oval" fill="#00B04C" cx="30" cy="30" r="30"></circle>
        <g id="Group-11">
            <mask id="mask-2" fill="white">
                <use xlink:href="#path-1"></use>
            </mask>
            <use id="Mask" fill="#00B04C" xlink:href="#path-1"></use>
        </g>
        <path d="M24.5076152,45.244957 C22.7377582,45.244957 21.303808,43.8129423 21.3000076,42.0470372 C19.6257534,41.9402551 18.3,40.5484937 18.3,38.8492232 L18.3,16.8616157 C18.3,15.9770475 19.0201096,15.2591372 19.9038076,15.2591372 L41.9741593,15.2591372 C42.8610649,15.2591372 43.5779669,15.9770475 43.5779669,16.8616157 L43.5779669,38.8492232 C43.5779669,40.5352022 42.2728722,41.9184639 40.6177047,42.0447777 C40.6178193,43.8091363 39.1808077,45.244957 37.4102041,45.244957 L24.5076152,45.244957 Z" id="Fill-73" fill="#ECE9E0"></path>
        <g id="Group" transform="translate(10.140343, 15.259137)">
            <path d="M20.8088874,26.795043 L11.3672721,26.795043 C9.59666856,26.795043 8.15965696,25.3592223 8.15965696,23.590086 L8.15965696,1.6024785 C8.15965696,0.717910368 8.87976657,1.95399252e-14 9.76346455,1.95399252e-14 L20.8088874,1.95399252e-14 L20.8088874,26.795043 Z" id="Fill-71" fill="#ECE9E0"></path>
            <path d="M30.2300087,26.795043 L20.7899973,26.795043 L20.7899973,1.95399252e-14 L31.8338163,1.95399252e-14 C32.7207219,1.95399252e-14 33.4376239,0.717910368 33.4376239,1.6024785 L33.4376239,23.590086 C33.4376239,25.3592223 32.0006123,26.795043 30.2300087,26.795043" id="Fill-72" fill="#F1EDE0"></path>
            <path d="M15.7205219,20.2005235 L4.81142274,20.2005235 C2.15391358,20.2005235 -5.5067062e-14,18.0467924 -5.5067062e-14,15.393088 L-5.5067062e-14,11.4029165 C-5.5067062e-14,8.74760964 2.15391358,6.59548101 4.81142274,6.59548101 L15.7205219,6.59548101 L15.7205219,20.2005235 Z" id="Stroke-73" stroke="#ECE9E0" stroke-width="2"></path>
            <path d="M20.8466548,29.9858198 L14.3672721,29.9858198 C12.5950647,29.9858198 11.159657,28.5499991 11.159657,26.7808628 L20.8466548,26.7808628 L20.8466548,29.9858198 Z" id="Fill-74" fill="#E2DBC7"></path>
            <path d="M27.2698611,29.9858198 L20.7904784,29.9858198 L20.7904784,26.7808628 L30.4774762,26.7808628 C30.4774762,28.5499991 29.0404646,29.9858198 27.2698611,29.9858198" id="Fill-75" fill="#EAE4D5"></path>
        </g>
        <path d="M30.9306611,25.0169493 C30.481595,23.9561085 29.3781754,23.1805089 28.1111674,23.1805089 C26.3950933,23.1805089 25.0478949,24.4865289 25.0478949,26.1194545 L25.0478949,26.3229692 C25.0478949,28.9766736 29.8288453,32.3643132 30.9306611,33.0998508 L30.9306611,25.0169493 Z" id="Fill-76" fill="#37AF4B"></path>
        <path d="M30.9306611,25.0169493 C31.3797272,23.9561085 32.4831468,23.1805089 33.7501548,23.1805089 C35.4245299,23.1805089 36.8134273,24.4865289 36.8134273,26.1194545 L36.8134273,26.3229692 C36.8134273,28.9766736 32.0324769,32.3643132 30.9306611,33.0998508 L30.9306611,25.0169493 Z" id="Fill-77" fill="#2973BC"></path>
    </g>
</svg>